<svg xmlns="http://www.w3.org/2000/svg" viewBox="0 0 308.65 90.99"><defs><style>.cls-1{fill:#333;}.cls-2{fill:#1ab3e8;}.cls-3{fill:#f9a01b;}</style></defs><g id="Layer_2" data-name="Layer 2"><g id="Layer_1-2" data-name="Layer 1"><path class="cls-1" d="M170.55,75h-8.69L160,79.54h-1.6l7-16.56h1.78l7,16.56h-1.66ZM170,73.64l-3.8-9.08-3.76,9.08Z"/><path class="cls-1" d="M178.35,64.37v6.29h6.12v1.39h-6.12v7.49h-1.47V63h8.62v1.39Z"/><path class="cls-1" d="M190.37,72.53h-.29v7h-1.46V63h5.11a4.74,4.74,0,0,1,4.87,4.8,4.69,4.69,0,0,1-4.84,4.75h-1.52l6.68,7H197Zm-.29-1.29h3.63a3.44,3.44,0,0,0,0-6.87h-3.63Z"/><path class="cls-1" d="M201.92,63h1.46V79.54h-1.46Z"/><path class="cls-1" d="M206.74,71.26a8.64,8.64,0,0,1,17.11-1.66h-1.56a7.14,7.14,0,1,0,0,3.31h1.56a8.64,8.64,0,0,1-17.11-1.65Z"/><path class="cls-1" d="M236.81,75h-8.69l-1.89,4.54h-1.61l7-16.56h1.78l7,16.56h-1.65Zm-.55-1.36-3.79-9.08-3.77,9.08Z"/><path class="cls-1" d="M0,14H14.26c8.65,0,15.37,2.38,15.37,10.34,0,3.74-2.09,7.72-5.49,9v.26a9.49,9.49,0,0,1,7.54,9.81c0,8.47-7.17,12.27-16.23,12.27H0ZM13.83,30.66c4.57,0,6.59-1.93,6.59-5,0-3.21-2.14-4.46-6.53-4.46H9.42v9.42Zm.85,17.71c5.14,0,7.79-1.82,7.79-5.61s-2.61-5.14-7.79-5.14H9.42V48.37Z"/><path class="cls-1" d="M36.44,46.85c0-6.69,5.32-10.31,17.86-11.63-.19-2.77-1.57-4.58-5-4.58-2.67,0-5.32,1.12-8.4,2.86l-3.34-6.17A25.93,25.93,0,0,1,51.1,23.16c8.11,0,12.6,4.63,12.6,14.35V55.64H56l-.67-3.25h-.24c-2.67,2.35-5.66,4-9.23,4C40.11,56.41,36.44,52.19,36.44,46.85Zm17.86-.42V40.89c-6.68.9-8.86,2.81-8.86,5.21,0,2,1.4,3,3.64,3S52.63,48.09,54.3,46.43Z"/><path class="cls-1" d="M69.75,39.79c0-10.54,7.76-16.63,16.53-16.63a13.78,13.78,0,0,1,9.26,3.41l-4.44,6a6.44,6.44,0,0,0-4.3-1.87c-4.52,0-7.42,3.57-7.42,9.05s3,9,7.11,9a9.51,9.51,0,0,0,5.72-2.34l3.68,6.14a15.83,15.83,0,0,1-10.46,3.78C76.58,56.41,69.75,50.32,69.75,39.79Z"/><path class="cls-1" d="M101.45,10.85h9.19V36.51h.23l10.06-12.59h10.2L120,37l12,18.64H121.8l-7.14-12.37-4,4.57v7.8h-9.19Z"/><path class="cls-1" d="M136.49,45.79V10.85h9.39V46.17c0,2,.94,2.66,1.7,2.66a4.08,4.08,0,0,0,1.16-.13l1.12,6.93a12.24,12.24,0,0,1-4.72.78C138.69,56.41,136.49,52.2,136.49,45.79Z"/><path class="cls-1" d="M154,14.37c0-2.88,2.29-4.91,5.44-4.91s5.44,2,5.44,4.91-2.29,4.91-5.44,4.91S154,17.23,154,14.37Zm.73,9.55h9.4V55.64h-9.4Z"/><path class="cls-1" d="M172.42,23.92h7.66l.68,4H181c2.67-2.56,5.87-4.78,10.2-4.78C198.08,23.16,201,28,201,36V55.64h-9.39V37.16c0-4.57-1.23-6-3.94-6-2.36,0-3.81,1.1-5.87,3.09V55.64h-9.4Z"/><path class="cls-1" d="M209,10.85h9.19V36.51h.23l10.06-12.59h10.2L227.56,37l11.95,18.64H229.33L222.2,43.27l-4,4.57v7.8H209Z"/><path class="cls-2" d="M253.75,11.14,308,44.07a1.38,1.38,0,0,1,.65,1.17v20.1a1.36,1.36,0,0,1-2.08,1.16L252.32,32.8a1.35,1.35,0,0,1-.65-1.16V12.31A1.37,1.37,0,0,1,253.75,11.14Z"/><path class="cls-3" d="M251.67,11.22V51.84a2.39,2.39,0,0,0,1,1.95L267.26,64A2.38,2.38,0,0,0,271,62.07V2.39a2.38,2.38,0,0,0-3.62-2L252.82,9.18A2.4,2.4,0,0,0,251.67,11.22Z"/><path class="cls-1" d="M252.72,78.36,308.3,44.69a.23.23,0,0,1,.35.2V67.24a.78.78,0,0,1-.37.67l-37.88,23a.78.78,0,0,1-.83,0L252.7,79.67A.77.77,0,0,1,252.72,78.36Z"/></g></g></svg>